Coordinates
version=1
nRows=5
nColumns=42
inDegrees=yes

Units are S.I. units (second, meters, Newtons, ...)
If the header above contains a line with 'inDegrees', this indicates whether rotational values are in degrees (yes) or radians (no).

endheader
time	pelvis_tilt	pelvis_list	pelvis_rotation	pelvis_tx	pelvis_ty	pelvis_tz	hip_flexion_r	hip_adduction_r	hip_rotation_r	knee_angle_r	knee_adduction_r	knee_angle_r_beta	ankle_angle_r	subtalar_angle_r	mtp_angle_r	hip_flexion_l	hip_adduction_l	hip_rotation_l	knee_angle_l	knee_adduction_l	knee_angle_l_beta	ankle_angle_l	subtalar_angle_l	mtp_angle_l	lumbar_extension	lumbar_bending	lumbar_rotation	arm_flex_r	arm_add_r	arm_rot_r	elbow_flex_r	pro_sup_r	wrist_flex_r	wrist_dev_r	arm_flex_l	arm_add_l	arm_rot_l	elbow_flex_l	pro_sup_l	wrist_flex_l	wrist_dev_l
      1.43000000	      7.65534316	      5.36225545	      1.17084500	      0.25691577	      0.99701704	     -0.47754564	     14.56533586	    -14.34502895	    -13.18787412	     74.07873978	     -4.95606417	      1.29291791	     -4.79706715	    -15.41562403	     -7.58018561	      1.23908783	      7.11116524	    -20.79617499	      8.94463285	     -5.87333254	      0.15611329	      3.55875834	     29.61403029	     -7.58018561	    -26.78628806	     -9.84275906	     -2.22882684	     12.38580087	    -15.49713044	     22.11523167	     34.97030532	     90.00000001	      0.00000000	      0.00000000	     10.04280551	    -21.41684348	     13.53608347	     42.31598864	     90.00000001	      0.00000000	      0.00000000
      1.44000000	      7.66434545	      5.32695715	      1.38758443	      0.26436190	      0.99755833	     -0.47821611	     15.84262944	    -14.05428527	    -13.00421943	     73.63147392	     -4.75404244	      1.28511165	     -4.38689267	    -14.94169090	     -7.57928688	      0.75603768	      7.06808008	    -20.65916932	      9.01686532	     -5.83973658	      0.15737399	      3.79772240	     29.45985732	     -7.57928688	    -27.02604561	     -9.72656162	     -2.64098562	     11.52942228	    -15.09705662	     22.19310013	     34.82214965	     90.00000001	      0.00000000	      0.00000000	     11.44098179	    -21.97737660	     13.33731066	     42.73415910	     90.00000001	      0.00000000	      0.00000000
      1.45000000	      7.66078807	      5.31479975	      1.55030409	      0.27185067	      0.99798791	     -0.47889941	     17.01352231	    -13.77706414	    -12.01808774	     72.96472168	     -3.76029465	      1.27347463	     -2.95525314	    -14.03582198	     -7.57579720	      0.22320435	      7.14478112	    -20.37671170	      8.93343825	     -5.93439445	      0.15591791	      4.56406151	     29.83427197	     -7.57579720	    -27.21556938	     -9.62392018	     -2.81694742	     10.67829431	    -14.63993509	     21.78009466	     34.26142039	     90.00000001	      0.00000000	      0.00000000	     13.16211605	    -22.48450708	     13.84756950	     42.63465927	     90.00000001	      0.00000000	      0.00000000
      1.46000000	      7.62467108	      5.34602761	      1.75152338	      0.27940807	      0.99830361	     -0.47944461	     18.18859899	    -13.55183451	    -11.90820017	     71.97822322	     -3.54865277	      1.25625698	     -2.69274708	    -13.57705076	     -7.57502823	     -0.18952662	      7.15176042	    -20.29665469	      9.04769497	     -5.90174608	      0.15791207	      4.73901334	     29.60407957	     -7.57502823	    -27.37125728	     -9.58395741	     -3.26344079	      9.78779482	    -14.21983357	     21.87077731	     34.16957969	     90.00000001	      0.00000000	      0.00000000	     14.46637726	    -23.07152958	     13.61732535	     43.05792767	     90.00000001	      0.00000000	      0.00000000
      1.47000000	      7.56329309	      5.40073056	      1.95239444	      0.28705070	      0.99850785	     -0.47998350	     19.29504852	    -13.31008648	    -11.75438238	     70.74643154	     -3.32243812	      1.23475816	     -2.36509230	    -13.13452761	     -7.57430796	     -0.59688280	      7.21244935	    -20.18171152	      9.12711627	     -5.90453835	      0.15929823	      4.97367141	     29.41585284	     -7.57430796	    -27.47988014	     -9.56500036	     -3.72211843	      8.88338561	    -13.88337044	     21.94812000	     34.05556067	     90.00000001	      0.00000000	      0.00000000	     15.76498301	    -23.61594503	     13.39799120	     43.48756031	     90.00000001	      0.00000000	      0.00000000
